<mxfile host="app.diagrams.net" modified="2023-07-13T01:03:11.402Z" agent="Mozilla/5.0 (Macintosh; Intel Mac OS X 10_15_7) AppleWebKit/537.36 (KHTML, like Gecko) Chrome/114.0.0.0 Safari/537.36" etag="LQY13iJQU6aShEYbyLsZ" version="21.6.1" type="github">
  <diagram name="第 1 页" id="69Xxb0vmUh5zGP4VsRXv">
    <mxGraphModel dx="1194" dy="798" grid="1" gridSize="10" guides="1" tooltips="1" connect="1" arrows="1" fold="1" page="1" pageScale="1" pageWidth="827" pageHeight="1169" math="0" shadow="0">
      <root>
        <mxCell id="0" />
        <mxCell id="1" parent="0" />
        <mxCell id="nxh7DMcWHzOz7m6ctWhx-1" value="" style="rounded=1;whiteSpace=wrap;html=1;fillColor=none;dashed=1;" vertex="1" parent="1">
          <mxGeometry x="120" y="360" width="480" height="200" as="geometry" />
        </mxCell>
        <mxCell id="nxh7DMcWHzOz7m6ctWhx-11" value="" style="rounded=1;whiteSpace=wrap;html=1;fillColor=none;dashed=1;strokeColor=#2c4368;" vertex="1" parent="1">
          <mxGeometry x="120" y="90" width="480" height="220" as="geometry" />
        </mxCell>
        <mxCell id="nxh7DMcWHzOz7m6ctWhx-18" style="edgeStyle=orthogonalEdgeStyle;rounded=0;orthogonalLoop=1;jettySize=auto;html=1;exitX=0;exitY=0.5;exitDx=0;exitDy=0;entryX=0.5;entryY=0;entryDx=0;entryDy=0;" edge="1" parent="1" source="nxh7DMcWHzOz7m6ctWhx-2" target="nxh7DMcWHzOz7m6ctWhx-4">
          <mxGeometry relative="1" as="geometry" />
        </mxCell>
        <mxCell id="nxh7DMcWHzOz7m6ctWhx-2" value="" style="rounded=1;whiteSpace=wrap;html=1;" vertex="1" parent="1">
          <mxGeometry x="310" y="100" width="120" height="150" as="geometry" />
        </mxCell>
        <mxCell id="nxh7DMcWHzOz7m6ctWhx-19" style="edgeStyle=orthogonalEdgeStyle;rounded=0;orthogonalLoop=1;jettySize=auto;html=1;exitX=0.5;exitY=0;exitDx=0;exitDy=0;entryX=1;entryY=0.5;entryDx=0;entryDy=0;" edge="1" parent="1" source="nxh7DMcWHzOz7m6ctWhx-3" target="nxh7DMcWHzOz7m6ctWhx-2">
          <mxGeometry relative="1" as="geometry" />
        </mxCell>
        <mxCell id="nxh7DMcWHzOz7m6ctWhx-3" value="ui store" style="rounded=1;whiteSpace=wrap;html=1;" vertex="1" parent="1">
          <mxGeometry x="450" y="240" width="120" height="60" as="geometry" />
        </mxCell>
        <mxCell id="nxh7DMcWHzOz7m6ctWhx-13" style="edgeStyle=orthogonalEdgeStyle;rounded=0;orthogonalLoop=1;jettySize=auto;html=1;exitX=0.5;exitY=1;exitDx=0;exitDy=0;entryX=0.5;entryY=0;entryDx=0;entryDy=0;" edge="1" parent="1" source="nxh7DMcWHzOz7m6ctWhx-4" target="nxh7DMcWHzOz7m6ctWhx-12">
          <mxGeometry relative="1" as="geometry" />
        </mxCell>
        <mxCell id="nxh7DMcWHzOz7m6ctWhx-4" value="oparator" style="rounded=1;whiteSpace=wrap;html=1;" vertex="1" parent="1">
          <mxGeometry x="180" y="240" width="120" height="60" as="geometry" />
        </mxCell>
        <mxCell id="nxh7DMcWHzOz7m6ctWhx-16" style="edgeStyle=orthogonalEdgeStyle;rounded=0;orthogonalLoop=1;jettySize=auto;html=1;exitX=1;exitY=0.5;exitDx=0;exitDy=0;" edge="1" parent="1" source="nxh7DMcWHzOz7m6ctWhx-5" target="nxh7DMcWHzOz7m6ctWhx-3">
          <mxGeometry relative="1" as="geometry" />
        </mxCell>
        <mxCell id="nxh7DMcWHzOz7m6ctWhx-5" value="modal" style="rounded=1;whiteSpace=wrap;html=1;" vertex="1" parent="1">
          <mxGeometry x="300" y="490" width="120" height="60" as="geometry" />
        </mxCell>
        <mxCell id="nxh7DMcWHzOz7m6ctWhx-17" style="edgeStyle=orthogonalEdgeStyle;rounded=0;orthogonalLoop=1;jettySize=auto;html=1;exitX=0.5;exitY=1;exitDx=0;exitDy=0;entryX=0;entryY=0.5;entryDx=0;entryDy=0;" edge="1" parent="1" source="nxh7DMcWHzOz7m6ctWhx-12" target="nxh7DMcWHzOz7m6ctWhx-5">
          <mxGeometry relative="1" as="geometry" />
        </mxCell>
        <mxCell id="nxh7DMcWHzOz7m6ctWhx-20" style="edgeStyle=orthogonalEdgeStyle;rounded=0;orthogonalLoop=1;jettySize=auto;html=1;exitX=1;exitY=0.5;exitDx=0;exitDy=0;entryX=0.5;entryY=1;entryDx=0;entryDy=0;" edge="1" parent="1" source="nxh7DMcWHzOz7m6ctWhx-12" target="nxh7DMcWHzOz7m6ctWhx-3">
          <mxGeometry relative="1" as="geometry" />
        </mxCell>
        <mxCell id="nxh7DMcWHzOz7m6ctWhx-12" value="rule" style="rounded=1;whiteSpace=wrap;html=1;" vertex="1" parent="1">
          <mxGeometry x="180" y="390" width="120" height="60" as="geometry" />
        </mxCell>
        <mxCell id="nxh7DMcWHzOz7m6ctWhx-21" value="状态" style="text;html=1;strokeColor=none;fillColor=none;align=center;verticalAlign=middle;whiteSpace=wrap;rounded=0;" vertex="1" parent="1">
          <mxGeometry x="370" y="390" width="60" height="30" as="geometry" />
        </mxCell>
        <mxCell id="nxh7DMcWHzOz7m6ctWhx-22" value="持久化" style="text;html=1;strokeColor=none;fillColor=none;align=center;verticalAlign=middle;whiteSpace=wrap;rounded=0;" vertex="1" parent="1">
          <mxGeometry x="240" y="470" width="60" height="30" as="geometry" />
        </mxCell>
        <mxCell id="nxh7DMcWHzOz7m6ctWhx-23" value="请求管理" style="rounded=1;whiteSpace=wrap;html=1;" vertex="1" parent="1">
          <mxGeometry x="330" y="170" width="80" height="30" as="geometry" />
        </mxCell>
        <mxCell id="nxh7DMcWHzOz7m6ctWhx-24" value="规则管理" style="rounded=1;whiteSpace=wrap;html=1;" vertex="1" parent="1">
          <mxGeometry x="330" y="210" width="80" height="30" as="geometry" />
        </mxCell>
        <mxCell id="nxh7DMcWHzOz7m6ctWhx-27" value="sidepanel" style="text;html=1;strokeColor=none;fillColor=none;align=center;verticalAlign=middle;whiteSpace=wrap;rounded=0;" vertex="1" parent="1">
          <mxGeometry x="340" y="100" width="60" height="30" as="geometry" />
        </mxCell>
        <mxCell id="nxh7DMcWHzOz7m6ctWhx-28" value="side panel store" style="rounded=1;whiteSpace=wrap;html=1;" vertex="1" parent="1">
          <mxGeometry x="327" y="130" width="86" height="30" as="geometry" />
        </mxCell>
      </root>
    </mxGraphModel>
  </diagram>
</mxfile>
